<?xml version="1.0" encoding="UTF-8"?>
<svg version="1.1" xmlns="http://www.w3.org/2000/svg" width="600" height="381">
<path d="M0 0 C0.8159111 -0.00979385 1.6318222 -0.01958771 2.47245789 -0.02967834 C20.13001142 -0.19794325 37.1504628 -0.12553569 54.375 4.23828125 C55.24495605 4.44727051 56.11491211 4.65625977 57.01123047 4.87158203 C104.08558408 16.35418062 146.47440901 46.79866763 172 88.05078125 C183.06703291 106.36270757 191.39141036 125.41146397 196.375 146.23828125 C196.57399902 147.03008789 196.77299805 147.82189453 196.97802734 148.63769531 C203.38285597 174.98089707 203.0228443 205.99839927 196.375 232.23828125 C196.16601074 233.1082373 195.95702148 233.97819336 195.74169922 234.87451172 C185.52017469 276.77893401 160.52781438 313.99400943 126.375 340.23828125 C125.56289063 340.87894531 124.75078125 341.51960938 123.9140625 342.1796875 C88.60198121 369.07119556 46.83768921 378.93340294 3.18374169 378.74652088 C-0.50609641 378.73521955 -4.19587727 378.7474154 -7.88571167 378.75636292 C-15.07895937 378.77016751 -22.27202939 378.76283602 -29.46526835 378.74768733 C-37.86763899 378.73067709 -46.26996721 378.73405603 -54.67234977 378.73778141 C-69.67540089 378.7436361 -84.67836761 378.72958053 -99.68139648 378.70483398 C-114.19444945 378.68089882 -128.70738982 378.67384118 -143.22045898 378.68432617 C-159.08424796 378.69576671 -174.9479851 378.69762849 -190.81177348 378.68322808 C-192.5069435 378.68170246 -194.20211352 378.68018211 -195.89728355 378.67866707 C-197.1478877 378.67753035 -197.1478877 378.67753035 -198.42375657 378.67637066 C-204.26254681 378.67165369 -210.10131368 378.67346061 -215.94010353 378.67773247 C-223.06430068 378.68268758 -230.18839199 378.67654856 -237.31256507 378.65683817 C-240.93820759 378.64704993 -244.56368984 378.64176799 -248.18934059 378.64973068 C-273.85936818 378.69997623 -296.08517431 375.92900438 -319.625 365.23828125 C-320.88183594 364.67173828 -320.88183594 364.67173828 -322.1640625 364.09375 C-353.64876477 349.15101035 -379.20521538 319.98368043 -391.47265625 287.52734375 C-403.95025808 252.43847888 -403.06624569 213.67949001 -388.19140625 179.5 C-382.55636858 167.76619339 -376.40387535 156.93065509 -367.625 147.23828125 C-366.51318359 145.96597656 -366.51318359 145.96597656 -365.37890625 144.66796875 C-363.16295098 142.15629674 -360.9059316 139.69098178 -358.625 137.23828125 C-357.94050781 136.48804688 -357.25601563 135.7378125 -356.55078125 134.96484375 C-334.56410488 111.79958399 -300.44362001 97.47382205 -268.76635742 96.11572266 C-230.69228283 95.15594536 -197.82620716 104.68133967 -167.625 128.23828125 C-167.40585938 126.99949219 -167.18671875 125.76070313 -166.9609375 124.484375 C-165.58918729 118.3545907 -162.98702651 112.92734864 -160.25 107.30078125 C-159.71979248 106.20556152 -159.18958496 105.1103418 -158.64331055 103.98193359 C-151.65316997 89.86966571 -142.99067444 77.08476633 -132.625 65.23828125 C-131.92117188 64.41328125 -131.21734375 63.58828125 -130.4921875 62.73828125 C-98.71403736 26.29022374 -48.86366959 0.48352514 0 0 Z " fill="#0189FE" transform="translate(399.625,-0.23828125)"/>
<path d="M0 0 C0.8159111 -0.00979385 1.6318222 -0.01958771 2.47245789 -0.02967834 C20.13001142 -0.19794325 37.1504628 -0.12553569 54.375 4.23828125 C55.24495605 4.44727051 56.11491211 4.65625977 57.01123047 4.87158203 C104.08558408 16.35418062 146.47440901 46.79866763 172 88.05078125 C201.26666491 136.47649894 201.26666491 136.47649894 196.375 157.23828125 C193.46670604 165.23413515 189.65112243 172.70210897 184.58349609 179.53027344 C183.38271604 181.22737592 182.36655611 182.94987099 181.36328125 184.76953125 C179.32187492 188.33096312 177.07975416 191.50849551 174.5625 194.73828125 C174.12381592 195.30506592 173.68513184 195.87185059 173.2331543 196.45581055 C170.36971286 200.10385693 167.38022548 203.44901999 164.015625 206.6328125 C162.19846213 208.41103616 160.57902763 210.29728575 158.9375 212.23828125 C149.19206068 223.4433899 136.21830559 231.95894195 123.375 239.23828125 C122.6634375 239.65464844 121.951875 240.07101563 121.21875 240.5 C103.53541608 250.65510299 84.46923249 257.06658468 64.375 260.23828125 C63.54967773 260.40529541 62.72435547 260.57230957 61.87402344 260.74438477 C20.86732314 268.95083788 -25.34798273 256.42019756 -59.65136719 233.58056641 C-67.62527381 228.15744189 -74.8628566 222.14329313 -81.87084961 215.53686523 C-82.56138144 214.88731338 -83.25191328 214.23776152 -83.96337032 213.56852627 C-96.88848344 201.3640404 -109.49040586 188.82117012 -122.10957432 176.30214787 C-126.62085074 171.82692891 -131.14077878 167.36123439 -135.68139648 162.91577148 C-140.11572963 158.57399284 -144.52782793 154.21075671 -148.92487907 149.83123589 C-150.59536266 148.17484408 -152.27360286 146.52623652 -153.95968819 144.88572884 C-156.30260171 142.60325771 -158.61587212 140.29430267 -160.92407227 137.97680664 C-161.62253769 137.30912766 -162.32100311 136.64144867 -163.04063416 135.95353699 C-167.51448016 131.38053076 -167.51448016 131.38053076 -167.83563137 128.06135464 C-167.43766835 124.57532737 -166.50277271 121.23924864 -165.05859375 118.046875 C-164.74245117 117.33781006 -164.42630859 116.62874512 -164.10058594 115.89819336 C-163.5867334 114.79809937 -163.5867334 114.79809937 -163.0625 113.67578125 C-162.70317383 112.89275635 -162.34384766 112.10973145 -161.97363281 111.30297852 C-160.87598877 108.93872993 -159.75628689 106.58659679 -158.625 104.23828125 C-158.30611816 103.573125 -157.98723633 102.90796875 -157.65869141 102.22265625 C-136.94938678 59.6834374 -97.59626882 26.37075983 -53.31640625 10.51904297 C-36.34944288 4.673256 -18.01037613 0.17821972 0 0 Z " fill="#61D3F9" transform="translate(399.625,-0.23828125)"/>
</svg>
